<svg width="141" height="141" viewBox="0 0 141 141" fill="none" xmlns="http://www.w3.org/2000/svg">
<path d="M26.4375 41.125C26.4375 24.9012 39.5887 11.75 55.8125 11.75C72.0363 11.75 85.1875 24.9012 85.1875 41.125C85.1875 57.3488 72.0363 70.5 55.8125 70.5C39.5887 70.5 26.4375 57.3488 26.4375 41.125ZM8.8125 94.7314C8.81328 91.4209 10.1289 88.2462 12.4701 85.9056C14.8113 83.5649 17.9863 82.25 21.2969 82.25H61.6875V101.855C61.6875 106.537 63.5469 111.026 66.8575 114.336L78.5106 125.989C71.6956 128.193 63.9288 129.25 55.8125 129.25C43.4339 129.25 31.8719 126.791 23.265 121.554C14.5171 116.228 8.8125 107.968 8.8125 96.9375V94.7314Z" fill="#74A2ED"/>
<path d="M67 81.7706V101.355C67 104.477 68.2396 107.471 70.4486 109.677L91.9482 131.179C93.041 132.272 94.3383 133.139 95.7662 133.731C97.1941 134.322 98.7246 134.627 100.27 134.627C101.816 134.627 103.346 134.322 104.774 133.731C106.202 133.139 107.499 132.272 108.592 131.179L128.179 111.592C129.272 110.499 130.139 109.202 130.731 107.774C131.322 106.346 131.627 104.816 131.627 103.27C131.627 101.725 131.322 100.194 130.731 98.7662C130.139 97.3383 129.272 96.041 128.179 94.9482L106.677 73.4457C104.469 71.2392 101.476 69.9998 98.3549 70H78.7706C75.6488 70 72.6549 71.2401 70.4475 73.4475C68.2401 75.6549 67 78.6488 67 81.7706ZM83.1563 90.5625C81.9876 90.5625 80.8669 90.0983 80.0406 89.2719C79.2142 88.4456 78.75 87.3249 78.75 86.1563C78.75 84.9876 79.2142 83.8669 80.0406 83.0406C80.8669 82.2142 81.9876 81.75 83.1563 81.75C84.3249 81.75 85.4456 82.2142 86.2719 83.0406C87.0983 83.8669 87.5625 84.9876 87.5625 86.1563C87.5625 87.3249 87.0983 88.4456 86.2719 89.2719C85.4456 90.0983 84.3249 90.5625 83.1563 90.5625Z" fill="#3A65F1"/>
</svg>
