<svg width="31" height="31" viewBox="0 0 31 31" fill="none" xmlns="http://www.w3.org/2000/svg">
<circle cx="15.5" cy="15.5" r="15.5" fill="#1D46F3"/>
<path d="M12.6631 17.4973C13.3926 12.5243 16.9302 10.8523 19.162 10.7501C11.2149 6.75776 9.02714 14.5023 9.01563 19.8413C9.01117 21.9106 11.5428 21.7495 12.1318 20.0263C12.3254 19.4598 12.4938 18.6512 12.6631 17.4973Z" fill="white"/>
<path d="M15.2288 14.1847C20.968 9.26609 22.4416 14.3916 22.4531 19.7307C22.457 21.5339 20.0472 21.8207 19.3547 20.2499C19.1046 19.6824 18.9 18.9013 18.6942 17.4982C18.4835 16.0621 18.4411 16.5482 18.2954 15.8853C17.9365 14.2526 17.3227 13.715 15.2288 14.1847Z" fill="white"/>
</svg>
